<mxfile host="app.diagrams.net" modified="2024-05-28T05:42:11.828Z" agent="Mozilla/5.0 (Macintosh; Intel Mac OS X 10_15_7) AppleWebKit/537.36 (KHTML, like Gecko) Chrome/124.0.0.0 Safari/537.36" version="24.4.9" etag="WhOprvvbYl98-yKAOisx" type="github">
  <diagram name="Page-1" id="N-qWqc-MtO4Km1gGdbv0">
    <mxGraphModel>
      <root>
        <mxCell id="0" />
        <mxCell id="1" parent="0" />
      </root>
    </mxGraphModel>
  </diagram>
</mxfile>
